<?xml version="1.0" encoding="utf-8"?>
<!-- Generator: Adobe Illustrator 22.0.1, SVG Export Plug-In . SVG Version: 6.00 Build 0)  -->
<svg version="1.1" id="Capa_1" xmlns="http://www.w3.org/2000/svg" xmlns:xlink="http://www.w3.org/1999/xlink" x="0px" y="0px"
	 viewBox="0 0 512 512" style="enable-background:new 0 0 512 512;" xml:space="preserve">
<style type="text/css">
	.st0{fill:#BABABA;}
</style>
<path class="st0" d="M512,130.7c0-10.9-4.3-20.8-11.2-28.4c-0.1-0.1-0.1-0.3-0.3-0.5c-0.1-0.1-0.3-0.2-0.4-0.3
	c-7.8-8.2-18.9-13.4-31.2-13.4H43c-12.3,0-23.3,5.2-31.2,13.4c-0.1,0.1-0.3,0.2-0.4,0.3c-0.1,0.1-0.1,0.3-0.3,0.5
	C4.3,109.9,0,119.8,0,130.7v250.6c0,11.2,4.5,21.3,11.7,28.9c0.1,0.2,0.2,0.4,0.3,0.5c0.1,0.1,0.1,0.1,0.2,0.1
	c7.8,8,18.7,13,30.8,13H469c12.1,0,23-5,30.8-13c0.1,0,0.1-0.1,0.2-0.1c0.2-0.1,0.2-0.3,0.3-0.5c7.2-7.6,11.7-17.7,11.7-28.9
	L512,130.7L512,130.7z M344.4,242.8L492,120.4c1.4,3.1,2.3,6.6,2.3,10.3v250.6c0,3.3-0.7,6.5-1.9,9.4L344.4,242.8z M469,105.7
	c3.7,0,7.2,0.8,10.4,2.3L256,293.2L32.6,108c3.2-1.4,6.7-2.3,10.4-2.3H469z M19.6,390.7c-1.2-2.9-1.9-6.1-1.9-9.4V130.7
	c0-3.7,0.9-7.1,2.3-10.3l147.5,122.3L19.6,390.7z M43,406.3c-4.1,0-7.9-1.1-11.3-2.8L181.2,254l69.1,57.3c1.6,1.4,3.7,2.1,5.7,2.1
	s4.1-0.7,5.7-2.1l69.1-57.3l149.5,149.5c-3.4,1.7-7.2,2.8-11.3,2.8L43,406.3L43,406.3z"/>
</svg>
