<?xml version="1.0" encoding="utf-8"?>
<!-- Generator: Adobe Illustrator 22.0.1, SVG Export Plug-In . SVG Version: 6.00 Build 0)  -->
<svg version="1.1" id="Layer_1" xmlns="http://www.w3.org/2000/svg" xmlns:xlink="http://www.w3.org/1999/xlink" x="0px" y="0px"
	 viewBox="0 0 512 512" style="enable-background:new 0 0 512 512;" xml:space="preserve">
<style type="text/css">
	.st0{fill:#BABABA;}
</style>
<path class="st0" d="M309.3,245.3H416c5.9,0,10.7-4.8,10.7-10.7S421.9,224,416,224H309.3c-5.9,0-10.7,4.8-10.7,10.7
	S303.4,245.3,309.3,245.3z"/>
<path class="st0" d="M309.3,181.3H416c5.9,0,10.7-4.8,10.7-10.7S421.9,160,416,160H309.3c-5.9,0-10.7,4.8-10.7,10.7
	S303.4,181.3,309.3,181.3z"/>
<path class="st0" d="M468.4,118.3c-4.6-24.8-26.3-43.6-52.4-43.6H53.3C23.9,74.7,0,98.6,0,128v213.3c0,26.1,18.9,47.8,43.6,52.4
	c4.6,24.8,26.3,43.6,52.4,43.6h362.7c29.4,0,53.3-23.9,53.3-53.3V170.7C512,144.6,493.1,122.9,468.4,118.3z M53.3,373.3
	c-17.6,0-32-14.4-32-32V128c0-17.6,14.4-32,32-32H416c17.6,0,32,14.4,32,32v213.3c0,17.6-14.4,32-32,32H53.3z M490.7,384
	c0,17.6-14.4,32-32,32H96c-13.9,0-25.6-8.9-30-21.3h350c29.4,0,53.3-23.9,53.3-53.3V140.6c12.4,4.4,21.3,16.1,21.3,30L490.7,384
	L490.7,384z"/>
<path class="st0" d="M160,117.3c-64.7,0-117.3,52.6-117.3,117.3c0,32.3,13.1,61.6,34.3,82.9c0,0,0,0.1,0.1,0.2
	c0.3,0.3,0.6,0.4,0.8,0.7c5.1,5,10.6,9.6,16.5,13.6c0.7,0.5,1.4,0.8,2.1,1.3c5.7,3.7,11.6,6.9,17.9,9.6c0.7,0.3,1.5,0.5,2.3,0.8
	c6.4,2.5,13,4.6,19.9,6c0.4,0.1,0.9,0.1,1.3,0.2c7.2,1.4,14.6,2.2,22.1,2.2s15-0.8,22.1-2.2c0.4-0.1,0.9-0.1,1.3-0.2
	c6.9-1.4,13.5-3.5,19.9-6c0.7-0.3,1.5-0.5,2.3-0.8c6.3-2.6,12.2-5.9,17.9-9.6c0.7-0.4,1.5-0.8,2.1-1.3c5.9-4,11.4-8.6,16.5-13.6
	c0.3-0.3,0.6-0.4,0.8-0.7c0,0,0-0.1,0.1-0.2c21.2-21.2,34.3-50.5,34.3-82.9C277.3,170,224.7,117.3,160,117.3z M217.6,310.9
	c-2.2,1.7-4.5,3.4-6.8,4.8c-1.9,1.2-4,2.2-6,3.2c-27.7,14.2-62,14.2-89.7,0c-2-1.1-4.1-2-6-3.2c-2.4-1.5-4.6-3.2-6.8-4.8
	c-1.7-1.3-3.3-2.6-4.9-4c11.3-24.3,35.5-40.2,62.5-40.2s51.2,15.9,62.5,40.2C220.9,308.3,219.3,309.7,217.6,310.9z M128,213.3
	c0-17.6,14.4-32,32-32s32,14.4,32,32s-14.4,32-32,32S128,231,128,213.3z M237.8,290.4c-9.9-16.8-24.8-29.9-42.4-37.5
	c10.9-9.8,17.9-23.8,17.9-39.6c0-29.4-23.9-53.3-53.3-53.3s-53.3,23.9-53.3,53.3c0,15.8,7,29.8,17.9,39.6
	c-17.6,7.6-32.5,20.7-42.4,37.5C70.8,274.7,64,255.5,64,234.7c0-52.9,43.1-96,96-96s96,43.1,96,96
	C256,255.5,249.2,274.7,237.8,290.4z"/>
<path class="st0" d="M426.7,298.7c0-5.9-4.8-10.7-10.7-10.7H309.3c-5.9,0-10.7,4.8-10.7,10.7s4.8,10.7,10.7,10.7H416
	C421.9,309.3,426.7,304.6,426.7,298.7z"/>
</svg>
