<?xml version="1.0" encoding="utf-8"?>
<!-- Generator: Adobe Illustrator 22.0.1, SVG Export Plug-In . SVG Version: 6.00 Build 0)  -->
<svg version="1.1" id="Layer_1" xmlns="http://www.w3.org/2000/svg" xmlns:xlink="http://www.w3.org/1999/xlink" x="0px" y="0px"
	 viewBox="0 0 512 512" style="enable-background:new 0 0 512 512;" xml:space="preserve">
<style type="text/css">
	.st0{fill:#BABABA;}
</style>
<path class="st0" d="M394.7,214.4v-75.8C394.7,62.2,332.5,0,256,0S117.3,62.2,117.3,138.7v75.8c-24.3,4.9-42.7,26.5-42.7,52.2v192
	c0,29.4,23.9,53.3,53.3,53.3h256c29.4,0,53.3-23.9,53.3-53.3v-192C437.3,240.9,419,219.4,394.7,214.4z M138.7,138.7
	C138.7,74,191.3,21.3,256,21.3S373.3,74,373.3,138.7v74.7H352v-74.7c0-52.9-43.1-96-96-96s-96,43.1-96,96v74.7h-21.3L138.7,138.7
	L138.7,138.7z M330.7,138.7v74.7H181.3v-74.7c0-41.2,33.5-74.7,74.7-74.7S330.7,97.5,330.7,138.7z M416,458.7c0,17.6-14.4,32-32,32
	H128c-17.6,0-32-14.4-32-32v-192c0-17.6,14.4-32,32-32h256c17.6,0,32,14.4,32,32V458.7z"/>
<path class="st0" d="M256,277.3c-29.4,0-53.3,23.9-53.3,53.3c0,20.3,11.8,38.7,29.7,47.6l-8.2,57.6c-0.4,3.1,0.5,6.2,2.5,8.5
	c2,2.3,5,3.7,8.1,3.7h42.7c3.1,0,6-1.4,8.1-3.7c2-2.3,2.9-5.4,2.5-8.5l-8.2-57.6c17.8-8.9,29.7-27.3,29.7-47.6
	C309.3,301.3,285.4,277.3,256,277.3z M264.9,361.2c-5.1,1.5-8.3,6.5-7.6,11.8l7.7,53.7H247l7.7-53.7c0.8-5.2-2.5-10.3-7.6-11.8
	c-13.8-4-23.1-16.3-23.1-30.5c0-17.6,14.4-32,32-32s32,14.4,32,32C288,344.9,278.7,357.2,264.9,361.2z"/>
</svg>
